<?xml version="1.0" ?>


<!-- Uploaded to: SVG Repo, www.svgrepo.com, Generator: SVG Repo Mixer Tools -->
<svg width="800px" height="800px" viewBox="0 0 91 91" enable-background="new 0 0 91 91" id="Layer_1" version="1.1" xml:space="preserve" xmlns="http://www.w3.org/2000/svg" xmlns:xlink="http://www.w3.org/1999/xlink">

<g>

<g>

<path d="M64.59,27.389c-6.518,0-11.82-5.304-11.82-11.822V0.482H11.826v89.593H74.64    c3.409,0,6.185-2.776,6.185-6.187v-56.5H64.59z" fill="#647F94"/>

<path d="M64.59,21.75h12.039L58.406,4.271v11.295C58.406,18.976,61.18,21.75,64.59,21.75z" fill="#45596B"/>

</g>

<path d="M35.925,66.4H24.809c-1.554,0-2.817-1.26-2.817-2.818c0-1.557,1.263-2.817,2.817-2.817h11.116   c1.554,0,2.818,1.261,2.818,2.817C38.743,65.141,37.479,66.4,35.925,66.4z" fill="#95AEC2"/>

<path d="M54.74,66.4h-5.482c-1.557,0-2.818-1.26-2.818-2.818c0-1.557,1.262-2.817,2.818-2.817h5.482   c1.556,0,2.818,1.261,2.818,2.817C57.559,65.141,56.296,66.4,54.74,66.4z" fill="#95AEC2"/>

<path d="M68.953,50.914H24.809c-1.554,0-2.817-1.261-2.817-2.817s1.263-2.818,2.817-2.818h44.144   c1.555,0,2.818,1.261,2.818,2.818S70.508,50.914,68.953,50.914z" fill="#95AEC2"/>

</g>

</svg>
