<?xml version="1.0" encoding="iso-8859-1"?>
<!-- Uploaded to: SVG Repo, www.svgrepo.com, Generator: SVG Repo Mixer Tools -->
<svg height="800px" width="800px" version="1.1" id="Layer_1" xmlns="http://www.w3.org/2000/svg" xmlns:xlink="http://www.w3.org/1999/xlink" 
	 viewBox="0 0 512 512" xml:space="preserve">
<polygon style="fill:#FEE187;" points="255.982,436.385 96.287,496.054 96.287,105.176 255.982,105.176 "/>
<g>
	<path style="fill:#FFC61B;" d="M96.288,512c-3.207,0-6.385-0.966-9.093-2.845c-4.293-2.979-6.855-7.874-6.855-13.102V105.176
		c0-8.806,7.141-15.946,15.946-15.946h159.695c8.806,0,15.946,7.141,15.946,15.946v331.208c0,6.654-4.132,12.609-10.365,14.937
		l-159.695,59.67C100.058,511.667,98.168,512,96.288,512z M112.233,121.122v351.949l127.802-47.751V121.122H112.233z"/>
	<path style="fill:#FFC61B;" d="M415.71,512c-1.88,0-3.77-0.332-5.58-1.009l-159.693-59.67c-6.233-2.328-10.365-8.283-10.365-14.937
		V105.176c0-8.806,7.141-15.946,15.946-15.946h73.865c8.806,0,15.946,7.141,15.946,15.946c0,8.806-7.141,15.946-15.946,15.946
		h-57.919V425.32l127.802,47.751V197.801c0-8.806,7.141-15.946,15.946-15.946s15.946,7.141,15.946,15.946v298.253
		c0,5.226-2.561,10.123-6.855,13.102C422.097,511.034,418.917,512,415.71,512z"/>
	<path style="fill:#FFC61B;" d="M415.712,120.492c-8.806,0-15.946-7.141-15.946-15.946V46.705c0-8.168-6.645-14.813-14.813-14.813
		H127.046c-8.168,0-14.813,6.645-14.813,14.813v57.839c0,8.806-7.141,15.946-15.946,15.946S80.34,113.35,80.34,104.544V46.705
		C80.34,20.952,101.292,0,127.046,0h257.907c25.753,0,46.705,20.952,46.705,46.705v57.839
		C431.658,113.352,424.519,120.492,415.712,120.492z"/>
</g>
</svg>